<?xml version="1.0" standalone="no"?>
<!DOCTYPE svg PUBLIC "-//W3C//DTD SVG 20010904//EN"
 "http://www.w3.org/TR/2001/REC-SVG-20010904/DTD/svg10.dtd">
<svg version="1.0" xmlns="http://www.w3.org/2000/svg"
 width="512.000000pt" height="512.000000pt" viewBox="0 0 512.000000 512.000000"
 preserveAspectRatio="xMidYMid meet">

<g transform="translate(0.000000,512.000000) scale(0.100000,-0.100000)"
fill="#000000" stroke="none">
<path d="M3155 4431 c-11 -5 -30 -19 -41 -32 -14 -15 -272 -714 -669 -1804
-534 -1471 -646 -1786 -641 -1815 3 -19 19 -47 36 -65 26 -25 38 -30 80 -30
42 0 54 5 79 30 43 44 1326 3573 1317 3625 -11 68 -99 118 -161 91z"/>
<path d="M1229 3467 c-30 -17 -974 -803 -1004 -836 -14 -16 -20 -37 -20 -71 0
-34 6 -55 20 -71 34 -38 977 -822 1008 -837 41 -20 94 -9 132 28 25 26 30 38
30 80 0 42 -5 54 -32 82 -18 18 -217 186 -442 373 -225 187 -410 342 -410 345
0 3 185 158 410 345 225 187 424 355 442 373 27 28 32 40 32 82 0 42 -5 54
-31 81 -37 36 -95 48 -135 26z"/>
<path d="M3795 3470 c-44 -18 -70 -59 -70 -110 0 -42 5 -54 32 -82 18 -18 217
-186 442 -373 225 -187 410 -342 410 -345 0 -3 -185 -158 -410 -345 -225 -187
-424 -355 -442 -373 -27 -28 -32 -40 -32 -82 0 -42 5 -54 30 -80 38 -37 91
-48 132 -28 31 15 974 799 1008 837 14 16 20 37 20 71 0 34 -6 55 -20 71 -31
34 -974 820 -1004 835 -29 15 -66 17 -96 4z"/>
</g>
</svg>
