<?xml version="1.0" standalone="no"?>
<!DOCTYPE svg PUBLIC "-//W3C//DTD SVG 20010904//EN"
 "http://www.w3.org/TR/2001/REC-SVG-20010904/DTD/svg10.dtd">
<svg version="1.0" xmlns="http://www.w3.org/2000/svg"
 width="64.000000pt" height="64.000000pt" viewBox="0 0 64.000000 64.000000"
 preserveAspectRatio="xMidYMid meet">

<g transform="translate(0.000000,64.000000) scale(0.100000,-0.100000)"
fill="#000000" stroke="none">
<path d="M124 580 c-70 -29 -70 -143 0 -170 20 -7 19 -8 -9 -15 -81 -18 -115
-65 -115 -161 l0 -61 57 -12 c79 -16 80 -15 88 26 12 65 36 98 92 128 7 4 -38
84 -49 88 -8 3 -6 6 4 6 10 1 20 12 24 26 3 13 12 29 20 36 54 45 -42 139
-112 109z"/>
<path d="M444 580 c-26 -10 -54 -48 -54 -71 0 -9 9 -24 20 -34 11 -10 20 -24
20 -31 0 -7 7 -20 16 -28 8 -9 11 -16 5 -16 -6 0 -11 -6 -11 -12 0 -7 -7 -26
-15 -42 -9 -16 -14 -30 -13 -31 61 -34 81 -62 93 -129 l8 -38 44 6 c74 10 83
19 83 84 0 91 -35 140 -115 157 -28 7 -29 8 -9 15 31 12 54 49 54 87 0 61 -70
107 -126 83z"/>
<path d="M263 466 c-22 -19 -28 -32 -28 -64 0 -112 153 -129 180 -21 8 31 -16
83 -44 99 -33 17 -78 11 -108 -14z"/>
<path d="M253 294 c-58 -13 -93 -79 -93 -176 0 -35 2 -38 43 -49 54 -16 214
-17 250 -1 26 11 27 15 27 78 0 70 -16 110 -53 134 -22 13 -135 22 -174 14z"/>
</g>
</svg>
