<?xml version="1.0" standalone="no"?>
<!DOCTYPE svg PUBLIC "-//W3C//DTD SVG 20010904//EN"
 "http://www.w3.org/TR/2001/REC-SVG-20010904/DTD/svg10.dtd">
<svg version="1.0" xmlns="http://www.w3.org/2000/svg"
 width="64.000000pt" height="64.000000pt" viewBox="0 0 64.000000 64.000000"
 preserveAspectRatio="xMidYMid meet">

<g transform="translate(0.000000,64.000000) scale(0.100000,-0.100000)"
fill="#000000" stroke="none">
<path d="M172 530 c-43 -26 -65 -76 -52 -120 37 -130 220 -109 220 24 0 48
-19 80 -60 101 -39 20 -69 19 -108 -5z"/>
<path d="M415 455 c-52 -51 -16 -145 55 -145 44 0 80 39 80 85 0 46 -36 85
-80 85 -19 0 -40 -9 -55 -25z"/>
<path d="M161 277 c-52 -16 -117 -84 -131 -135 -21 -80 -30 -77 198 -80 226
-3 221 -4 203 65 -17 64 -51 106 -110 136 -58 29 -102 33 -160 14z"/>
<path d="M430 281 c-30 -9 -29 -17 5 -68 15 -21 29 -50 32 -65 5 -28 7 -28 81
-28 l75 0 -6 37 c-15 87 -107 149 -187 124z"/>
</g>
</svg>
