<?xml version="1.0" standalone="no"?>
<!DOCTYPE svg PUBLIC "-//W3C//DTD SVG 20010904//EN"
 "http://www.w3.org/TR/2001/REC-SVG-20010904/DTD/svg10.dtd">
<svg version="1.0" xmlns="http://www.w3.org/2000/svg"
 width="512.000000pt" height="512.000000pt" viewBox="0 0 512.000000 512.000000"
 preserveAspectRatio="xMidYMid meet">

<g transform="translate(0.000000,512.000000) scale(0.100000,-0.100000)"
fill="#000000" stroke="none">
<path d="M1390 5105 c-58 -18 -123 -73 -149 -128 -12 -26 -54 -225 -110 -526
-50 -266 -91 -488 -91 -492 0 -5 -186 -9 -412 -11 -385 -3 -416 -4 -452 -22
-52 -26 -104 -79 -127 -130 -18 -39 -19 -106 -19 -1816 l0 -1775 24 -50 c28
-60 66 -97 126 -124 45 -20 56 -21 1821 -21 l1775 0 52 26 c28 14 65 43 82 64
54 68 60 101 60 332 l0 210 23 -5 c12 -3 69 -13 127 -23 122 -20 158 -14 236
39 92 61 68 -45 424 1857 243 1300 319 1725 314 1755 -16 100 -90 182 -188
210 -70 20 -3415 645 -3446 644 -14 0 -45 -7 -70 -14z m1790 -435 c1260 -236
1711 -324 1730 -338 14 -10 33 -35 43 -55 l18 -36 -241 -1288 c-132 -708 -244
-1299 -248 -1312 -7 -21 -31 3 -260 255 l-252 279 0 581 0 581 49 32 c170 109
258 345 206 546 -46 175 -198 323 -374 365 -33 8 -91 11 -152 8 -92 -5 -106
-8 -183 -46 -106 -53 -183 -128 -228 -222 l-33 -69 -1043 0 -1044 -1 6 28 c3
15 40 209 81 432 41 223 80 428 86 457 13 67 65 120 119 122 8 1 782 -143
1720 -319z m722 -548 c78 -38 138 -101 177 -182 22 -47 26 -69 26 -150 0 -83
-3 -102 -28 -156 -16 -34 -46 -78 -67 -99 l-38 -37 -4 144 c-3 141 -4 146 -33
194 -19 30 -49 60 -79 79 l-49 30 -204 3 c-112 2 -203 7 -203 12 0 15 64 92
101 122 20 16 62 40 95 54 51 21 72 24 149 22 79 -3 99 -7 157 -36z m-125
-322 c68 -41 63 67 61 -1472 l-3 -1393 -658 625 c-363 344 -663 626 -667 628
-4 2 -101 -53 -214 -122 -114 -70 -210 -126 -214 -126 -4 0 -153 146 -332 324
l-325 324 -630 -455 -630 -455 -3 1028 c-2 1135 -7 1053 61 1094 31 20 65 20
1777 20 1713 0 1746 0 1777 -20z m-1499 -1899 l213 131 82 -79 c385 -367 1224
-1162 1243 -1176 l24 -19 0 -259 c0 -282 -2 -296 -56 -338 l-27 -21 -1754 0
c-1548 0 -1757 2 -1783 15 -62 32 -60 11 -60 717 l0 643 628 452 627 452 325
-324 325 -324 213 130z m2034 -297 l137 -151 -60 -319 c-40 -213 -66 -327 -78
-344 -10 -14 -33 -34 -52 -44 -35 -19 -36 -19 -162 4 l-127 23 0 603 0 604
103 -113 c56 -61 164 -180 239 -263z"/>
<path d="M2751 3424 c-221 -59 -374 -259 -374 -489 1 -287 219 -505 503 -505
144 1 257 47 357 146 201 201 199 520 -3 719 -125 122 -317 174 -483 129z
m293 -153 c81 -40 156 -119 187 -199 46 -118 25 -265 -52 -366 -80 -104 -184
-151 -319 -144 -110 6 -180 38 -255 120 -134 144 -135 353 -3 503 77 87 174
127 300 122 62 -3 89 -10 142 -36z"/>
</g>
</svg>
