<?xml version="1.0" standalone="no"?>
<!DOCTYPE svg PUBLIC "-//W3C//DTD SVG 20010904//EN"
 "http://www.w3.org/TR/2001/REC-SVG-20010904/DTD/svg10.dtd">
<svg version="1.0" xmlns="http://www.w3.org/2000/svg"
 width="64.000000pt" height="64.000000pt" viewBox="0 0 64.000000 64.000000"
 preserveAspectRatio="xMidYMid meet">

<g transform="translate(0.000000,64.000000) scale(0.100000,-0.100000)"
fill="#000000" stroke="none">
<path d="M215 587 c-56 -19 -81 -33 -127 -75 -50 -45 -78 -100 -85 -168 -5
-45 -1 -62 22 -109 15 -31 40 -65 56 -77 37 -28 36 -39 -3 -84 l-33 -37 55 5
c30 2 67 12 82 22 21 14 51 18 140 19 92 2 122 6 160 24 91 42 158 140 158
231 0 94 -68 191 -162 232 -65 29 -201 37 -263 17z"/>
</g>
</svg>
