<?xml version="1.0" standalone="no"?>
<!DOCTYPE svg PUBLIC "-//W3C//DTD SVG 20010904//EN"
 "http://www.w3.org/TR/2001/REC-SVG-20010904/DTD/svg10.dtd">
<svg version="1.0" xmlns="http://www.w3.org/2000/svg"
 width="64.000000pt" height="64.000000pt" viewBox="0 0 64.000000 64.000000"
 preserveAspectRatio="xMidYMid meet">

<g transform="translate(0.000000,64.000000) scale(0.100000,-0.100000)"
fill="#000000" stroke="none">
<path d="M17 619 c-15 -9 -17 -33 -17 -270 0 -282 4 -304 55 -327 40 -19 497
-17 534 2 44 23 51 53 51 221 0 126 -3 156 -16 169 -8 9 -20 16 -25 16 -5 0
-9 -58 -9 -134 0 -79 -4 -137 -10 -141 -7 -4 -10 71 -10 218 0 204 -2 225 -18
240 -16 15 -50 17 -268 17 -150 0 -256 -5 -267 -11z m477 -75 c10 -27 6 -110
-6 -122 -17 -17 -389 -17 -406 0 -13 13 -17 120 -5 131 3 4 97 7 209 7 175 0
203 -2 208 -16z m1 -214 c-8 -14 -425 -14 -425 0 0 6 79 10 216 10 141 0 213
-3 209 -10z m0 -80 c-4 -6 -85 -10 -210 -10 -125 0 -206 4 -210 10 -4 7 68 10
210 10 142 0 214 -3 210 -10z m0 -75 c0 -10 -387 -20 -413 -10 -7 3 -10 9 -7
15 9 14 420 9 420 -5z"/>
</g>
</svg>
