<?xml version="1.0" standalone="no"?>
<!DOCTYPE svg PUBLIC "-//W3C//DTD SVG 20010904//EN"
 "http://www.w3.org/TR/2001/REC-SVG-20010904/DTD/svg10.dtd">
<svg version="1.0" xmlns="http://www.w3.org/2000/svg"
 width="64.000000pt" height="64.000000pt" viewBox="0 0 64.000000 64.000000"
 preserveAspectRatio="xMidYMid meet">

<g transform="translate(0.000000,64.000000) scale(0.100000,-0.100000)"
fill="#000000" stroke="none">
<path d="M276 624 c-13 -12 -16 -39 -16 -130 l0 -114 -114 0 c-127 0 -146 -8
-146 -60 0 -52 19 -60 146 -60 l114 0 0 -114 c0 -127 8 -146 60 -146 52 0 60
19 60 146 l0 114 114 0 c127 0 146 8 146 60 0 52 -19 60 -146 60 l-114 0 0
114 c0 91 -3 118 -16 130 -20 20 -68 20 -88 0z"/>
</g>
</svg>
