<?xml version="1.0" standalone="no"?>
<!DOCTYPE svg PUBLIC "-//W3C//DTD SVG 20010904//EN"
 "http://www.w3.org/TR/2001/REC-SVG-20010904/DTD/svg10.dtd">
<svg version="1.0" xmlns="http://www.w3.org/2000/svg"
 width="64.000000pt" height="64.000000pt" viewBox="0 0 64.000000 64.000000"
 preserveAspectRatio="xMidYMid meet">

<g transform="translate(0.000000,64.000000) scale(0.100000,-0.100000)"
fill="#000000" stroke="none">
<path d="M255 606 c-101 -44 -125 -178 -46 -257 112 -113 296 -12 267 146 -18
94 -131 151 -221 111z"/>
<path d="M195 269 c-71 -40 -126 -125 -129 -198 l-1 -46 255 0 255 0 -1 46
c-2 54 -24 101 -68 147 -49 53 -79 65 -129 51 -38 -10 -88 -8 -142 6 -11 3
-29 0 -40 -6z"/>
</g>
</svg>
