<svg width="30" height="30" viewBox="0 0 30 30" fill="none" xmlns="http://www.w3.org/2000/svg">
<path d="M17.9004 3.2207C17.4902 3.32617 17.168 3.58984 16.957 3.98828C16.8516 4.17578 16.8457 4.38672 16.8281 6.66016L16.8106 9.12695L15.5977 9.16797C11.3965 9.30273 8.44923 9.8125 6.04103 10.8203C2.27931 12.3965 0.345716 15.4316 0.351576 19.7441C0.357435 21.6602 1.00783 23.6699 2.209 25.4922C2.77736 26.3477 3.22267 26.8867 3.96095 27.6016C5.08009 28.6855 5.49611 28.9258 5.98829 28.7793C6.31642 28.6797 6.48048 28.5625 6.62697 28.3281C6.80275 28.041 6.78517 27.7422 6.54494 26.8984C5.68947 23.9102 5.73634 21.7188 6.68556 20.1191C6.93751 19.6973 7.59962 19.0234 8.08009 18.7012C9.62111 17.6582 12.1524 17.0781 15.6856 16.9551L16.8106 16.9199L16.8281 19.6094C16.8457 22.0938 16.8516 22.3164 16.957 22.5156C17.3145 23.2363 18.211 23.5293 18.8731 23.1367C19.1602 22.9609 29.127 14.3535 29.3496 14.0898C29.6836 13.6797 29.7363 13.1465 29.4902 12.6543C29.3496 12.3789 29.0918 12.1387 27.5684 10.8203C26.6016 9.98828 24.2695 7.97266 22.3828 6.34375C20.4961 4.7207 18.8672 3.34961 18.7617 3.30273C18.5156 3.20312 18.1231 3.16211 17.9004 3.2207Z" fill="white"/>
</svg>
